<?xml version="1.0" encoding="UTF-8"?>
<!DOCTYPE svg PUBLIC "-//W3C//DTD SVG 1.1//EN" "http://www.w3.org/Graphics/SVG/1.1/DTD/svg11.dtd">
<svg version="1.1" xmlns="http://www.w3.org/2000/svg" xmlns:xlink="http://www.w3.org/1999/xlink" x="0" y="0" width="460" height="160" viewBox="0, 0, 460, 160">
  <g id="Layer_1">
    <path d="M165.685,93.649 C165.28,99.572 162.975,104.282 158.761,107.786 C154.543,111.288 149.054,113.037 142.288,113.037 C134.48,113.037 128.41,110.61 124.09,105.8 C119.745,100.976 117.592,94.211 117.592,85.504 C117.592,76.616 119.804,69.817 124.205,65.086 C128.618,60.354 134.965,58 143.25,58 C149.98,58 155.286,59.618 159.188,62.869 C163.08,66.121 165.237,70.713 165.605,76.654 L154.914,76.654 C154.462,73.689 153.233,71.438 151.266,69.9 C149.285,68.35 146.61,67.569 143.248,67.569 C138.477,67.569 134.852,69.097 132.368,72.152 C129.892,75.195 128.642,79.652 128.642,85.506 C128.642,91.18 129.869,95.568 132.336,98.67 C134.815,101.775 138.324,103.308 142.888,103.308 C146.18,103.308 148.879,102.472 150.974,100.829 C153.082,99.151 154.439,96.77 155.055,93.649 L165.685,93.649 L165.685,93.649 z M173.309,127.048 L173.309,118.698 C173.633,118.745 173.994,118.802 174.337,118.828 C174.699,118.848 175.161,118.864 175.73,118.864 C177.79,118.864 179.318,118.381 180.35,117.401 C181.383,116.448 181.891,115.012 181.891,113.106 C181.891,112.968 181.869,112.785 181.817,112.579 C181.763,112.348 181.717,112.188 181.671,112.025 L167.656,73.027 L179.088,73.027 L187.29,100.842 L195.271,73.027 L206.217,73.027 L190.232,118.505 C189.037,121.892 187.545,124.237 185.747,125.453 C183.964,126.707 181.276,127.313 177.697,127.313 C177.048,127.313 176.364,127.293 175.624,127.245 C174.896,127.195 174.107,127.127 173.309,127.048 L173.309,127.048 z M229.665,111.851 C228.714,111.874 227.579,111.92 226.246,111.977 C224.925,112.061 224.092,112.084 223.733,112.084 C219.737,112.084 217.014,111.334 215.555,109.867 C214.083,108.371 213.354,105.466 213.354,101.115 L213.354,80.269 L208.201,80.269 L208.201,73.022 L213.354,73.022 L213.354,62.501 L223.666,62.501 L223.666,73.022 L229.667,73.022 L229.667,80.269 L223.666,80.269 L223.666,101.605 C223.666,102.642 223.898,103.295 224.349,103.619 C224.801,103.928 225.727,104.1 227.126,104.1 L229.664,104.1 L229.664,111.851 L229.665,111.851 L229.665,111.851 z M244.066,92.235 C244.066,96.071 244.84,99.033 246.44,101.103 C248.039,103.194 250.298,104.225 253.217,104.225 C256.097,104.225 258.338,103.192 259.934,101.103 C261.534,99.036 262.307,96.071 262.307,92.235 C262.307,88.444 261.547,85.503 259.957,83.436 C258.396,81.37 256.147,80.335 253.217,80.335 C250.298,80.335 248.039,81.369 246.44,83.436 C244.837,85.503 244.066,88.444 244.066,92.235 L244.066,92.235 z M233.499,92.235 C233.499,85.838 235.259,80.806 238.771,77.143 C242.282,73.467 247.076,71.641 253.227,71.641 C259.345,71.641 264.137,73.467 267.66,77.143 C271.182,80.806 272.943,85.838 272.943,92.235 C272.943,98.679 271.181,103.72 267.66,107.383 C264.138,111.044 259.345,112.873 253.227,112.873 C247.074,112.873 242.282,111.044 238.771,107.383 C235.259,103.72 233.499,98.68 233.499,92.235 z" fill="#838383"/>
    <path d="M275.502,98.58 L281.674,98.58 C281.929,101.138 282.854,103.106 284.502,104.437 C286.12,105.743 288.437,106.413 291.448,106.413 C294.207,106.413 296.396,105.883 298.01,104.792 C299.594,103.726 300.395,102.256 300.395,100.394 C300.395,98.981 299.988,97.912 299.19,97.165 C298.404,96.432 296.837,95.776 294.521,95.237 L287.328,93.4 C283.272,92.437 280.472,91.149 278.872,89.538 C277.298,87.957 276.497,85.683 276.497,82.716 C276.497,79.376 277.785,76.711 280.331,74.737 C282.902,72.76 286.413,71.773 290.882,71.773 C295.435,71.773 299.05,72.831 301.749,74.933 C304.446,77.032 305.794,79.859 305.794,83.41 L305.794,83.545 L299.526,83.545 C299.388,81.536 298.555,79.974 297.047,78.882 C295.518,77.782 293.479,77.23 290.871,77.23 C288.264,77.23 286.309,77.677 284.953,78.575 C283.605,79.481 282.923,80.791 282.923,82.527 C282.923,83.756 283.352,84.72 284.198,85.395 C285.043,86.107 286.617,86.704 288.946,87.222 L295.154,88.695 C299.589,89.728 302.647,91.062 304.331,92.666 C305.986,94.298 306.818,96.607 306.818,99.617 C306.818,103.569 305.419,106.611 302.627,108.805 C299.824,110.998 295.907,112.103 290.882,112.103 C285.959,112.103 282.168,110.931 279.554,108.621 C276.924,106.296 275.569,102.942 275.502,98.58 L275.502,98.58 z M337.684,85.577 C337.499,82.97 336.536,80.97 334.846,79.546 C333.13,78.145 330.814,77.444 327.837,77.444 C324.35,77.444 321.66,78.698 319.773,81.178 C317.886,83.643 316.936,87.195 316.936,91.824 C316.936,96.439 317.851,100.012 319.671,102.501 C321.488,105.02 324.086,106.282 327.407,106.282 C330.422,106.282 332.818,105.501 334.613,103.976 C336.42,102.423 337.544,100.184 337.97,97.269 L344.111,97.269 C343.801,101.918 342.131,105.547 339.144,108.168 C336.179,110.787 332.17,112.095 327.118,112.095 C321.885,112.095 317.772,110.314 314.77,106.744 C311.77,103.17 310.276,98.267 310.276,92.052 C310.276,85.69 311.828,80.718 314.955,77.11 C318.08,73.506 322.38,71.7 327.836,71.7 C332.668,71.7 336.501,72.94 339.421,75.434 C342.304,77.925 343.858,81.301 344.041,85.575 L337.682,85.575 L337.684,85.577 L337.684,85.577 z M372.16,105.849 C370.143,107.914 367.999,109.489 365.753,110.522 C363.493,111.555 361.119,112.096 358.583,112.096 C354.683,112.096 351.622,111.061 349.431,109.051 C347.231,107.017 346.144,104.228 346.144,100.668 C346.144,97.226 347.208,94.524 349.374,92.547 C351.541,90.584 354.819,89.322 359.23,88.759 C360.342,88.617 361.872,88.469 363.772,88.263 C367.038,87.93 369.054,87.596 369.772,87.285 C370.526,87.022 371.013,86.643 371.27,86.183 C371.487,85.725 371.602,84.729 371.602,83.173 C371.602,81.245 370.894,79.797 369.474,78.82 C368.035,77.856 365.882,77.374 362.985,77.374 C360.02,77.374 357.774,77.959 356.241,79.143 C354.738,80.328 353.97,82.085 353.97,84.391 L347.901,84.391 L347.901,84.102 C347.901,80.281 349.256,77.247 351.979,75.019 C354.7,72.802 358.429,71.7 363.216,71.7 C368.324,71.7 372.087,72.654 374.535,74.546 C376.94,76.455 378.159,79.43 378.159,83.472 L378.159,102.468 C378.159,104.1 378.332,105.143 378.69,105.613 C379.051,106.085 379.685,106.342 380.625,106.342 C380.823,106.342 381.043,106.329 381.322,106.295 C381.614,106.261 381.922,106.205 382.305,106.109 L382.305,111.048 C381.54,111.268 380.835,111.417 380.269,111.496 C379.664,111.604 379.108,111.637 378.586,111.637 C376.434,111.637 374.848,111.178 373.756,110.257 C372.691,109.305 372.159,107.914 372.159,106.055 L372.16,105.849 L372.16,105.849 L372.16,105.849 z M371.534,91.584 C369.807,92.501 366.877,93.238 362.708,93.755 C361.21,93.938 360.123,94.101 359.37,94.213 C357.041,94.59 355.348,95.268 354.331,96.256 C353.313,97.27 352.802,98.705 352.802,100.596 C352.802,102.481 353.394,103.928 354.588,104.965 C355.764,105.974 357.481,106.48 359.694,106.48 C363.169,106.48 365.995,105.617 368.218,103.882 C370.431,102.173 371.531,99.968 371.531,97.269 L371.534,91.584 L371.534,91.584 z M392.222,92.18 C392.222,96.924 393.17,100.474 395.087,102.851 C396.973,105.217 399.811,106.413 403.602,106.413 C407.238,106.413 410.029,105.102 411.985,102.481 C413.968,99.873 414.952,96.166 414.952,91.389 C414.952,87.059 413.942,83.648 411.894,81.181 C409.842,78.7 407.061,77.446 403.529,77.446 C399.901,77.446 397.111,78.723 395.165,81.272 C393.193,83.832 392.222,87.472 392.222,92.18 L392.222,92.18 z M386.154,126.097 L386.154,72.931 L392.456,72.931 L392.456,78.296 C394.027,76.033 395.826,74.355 397.832,73.3 C399.822,72.232 402.173,71.703 404.943,71.703 C410.04,71.703 414.105,73.516 417.154,77.159 C420.18,80.799 421.717,85.678 421.717,91.8 C421.717,97.991 420.163,102.918 417.107,106.583 C414.024,110.271 409.949,112.096 404.846,112.096 C402.147,112.096 399.797,111.616 397.772,110.637 C395.72,109.682 393.947,108.226 392.455,106.275 L392.455,126.097 L386.154,126.097 L386.154,126.097 z M432.198,88.471 L453.236,88.471 C453.212,84.923 452.31,82.189 450.514,80.272 C448.728,78.341 446.182,77.376 442.902,77.376 C439.729,77.376 437.212,78.318 435.394,80.2 C433.579,82.108 432.516,84.854 432.198,88.471 L432.198,88.471 z M453.11,98.65 L459.47,98.65 C458.762,102.827 456.93,106.123 453.958,108.548 C450.977,110.951 447.226,112.165 442.693,112.165 C437.378,112.165 433.159,110.396 430.101,106.848 C427.023,103.299 425.468,98.449 425.468,92.343 C425.468,85.851 427.01,80.798 430.042,77.158 C433.102,73.516 437.327,71.702 442.693,71.702 C448.197,71.702 452.446,73.378 455.473,76.733 C458.493,80.086 460,84.829 460,90.962 C460,91.72 460,92.317 459.989,92.672 C459.977,93.051 459.945,93.429 459.899,93.789 L432.234,93.789 C432.304,97.785 433.326,100.889 435.249,103.079 C437.169,105.248 439.857,106.353 443.301,106.353 C445.93,106.353 448.097,105.672 449.786,104.329 C451.498,102.998 452.613,101.104 453.11,98.65 z" fill="#838383"/>
    <path d="M58.775,38.19 C58.514,40.759 57.767,43.243 56.567,45.526 L76.032,65.401 C78.816,64.06 81.846,63.314 84.95,63.206 L93.056,36.498 C90.985,34.963 89.223,33.045 87.869,30.852 L58.775,38.19 z M55.53,24.977 L85.042,17.534 C86.367,7.612 94.871,0 105.098,0 C116.273,0 125.335,9.064 125.335,20.236 C125.335,31.132 116.717,40.02 105.928,40.456 L97.932,66.804 C104.237,70.901 108.124,77.933 108.124,85.58 C108.124,91.999 105.39,98.028 100.68,102.249 L109.435,119.726 C110.374,119.593 111.322,119.527 112.272,119.527 C123.445,119.527 132.508,128.59 132.508,139.764 C132.508,150.936 123.445,160 112.272,160 C101.097,160 92.034,150.936 92.034,139.764 C92.034,134.589 93.999,129.674 97.489,125.944 L88.404,107.809 C87.519,107.915 86.627,107.968 85.736,107.968 C81.203,107.968 76.828,106.61 73.126,104.078 L62.838,113.138 C62.908,113.67 62.943,114.207 62.943,114.746 C62.943,121.563 57.413,127.093 50.597,127.093 C43.779,127.093 38.249,121.563 38.249,114.746 C38.249,107.928 43.779,102.397 50.597,102.397 C51.773,102.397 52.938,102.564 54.059,102.891 L64.776,93.455 C64.231,92.004 63.839,90.499 63.606,88.966 L38.058,85.525 C34.564,92.021 27.748,96.173 20.236,96.173 C9.062,96.173 0,87.109 0,75.937 C0,64.764 9.062,55.701 20.236,55.701 C30.067,55.701 38.368,62.752 40.127,72.205 L65.67,75.647 C65.839,75.304 66.019,74.966 66.207,74.632 L46.689,54.7 C44.156,55.8 41.425,56.367 38.643,56.367 C27.469,56.367 18.406,47.304 18.406,36.13 C18.406,24.958 27.469,15.895 38.643,15.895 C45.5,15.894 51.815,19.353 55.53,24.977 z" fill="#838383"/>
    <path d="M225.712,120 Q232.926,120 236.908,123.801 Q240.889,127.602 241.329,132.437 L236.313,132.437 Q235.46,128.765 232.913,126.619 Q230.366,124.473 225.763,124.473 Q220.153,124.473 216.701,128.416 Q213.249,132.359 213.249,140.504 Q213.249,147.175 216.365,151.325 Q219.48,155.475 225.66,155.475 Q231.348,155.475 234.322,151.105 Q235.899,148.804 236.675,145.055 L241.691,145.055 Q241.019,151.054 237.244,155.113 Q232.719,160 225.039,160 Q218.42,160 213.921,155.992 Q208,150.692 208,139.625 Q208,131.222 212.447,125.844 Q217.257,120 225.712,120 z" fill="#838383"/>
    <path d="M259.933,156.961 Q263.397,156.961 264.684,154.339 Q265.971,151.716 265.971,148.503 Q265.971,145.6 265.042,143.781 Q263.571,140.916 259.971,140.916 Q256.778,140.916 255.326,143.355 Q253.874,145.794 253.874,149.239 Q253.874,152.548 255.326,154.755 Q256.778,156.961 259.933,156.961 z M260.068,137.877 Q264.074,137.877 266.842,140.548 Q269.61,143.219 269.61,148.406 Q269.61,153.419 267.171,156.69 Q264.733,159.961 259.603,159.961 Q255.326,159.961 252.81,157.068 Q250.294,154.174 250.294,149.297 Q250.294,144.071 252.945,140.974 Q255.597,137.877 260.068,137.877 z" fill="#838383"/>
    <path d="M278.213,138.477 L281.522,138.477 L281.522,141.419 Q282.993,139.6 284.639,138.806 Q286.284,138.013 288.297,138.013 Q292.71,138.013 294.258,141.09 Q295.109,142.774 295.109,145.91 L295.109,159.206 L291.568,159.206 L291.568,146.142 Q291.568,144.245 291.006,143.084 Q290.077,141.148 287.639,141.148 Q286.4,141.148 285.606,141.4 Q284.174,141.826 283.09,143.103 Q282.219,144.129 281.958,145.223 Q281.697,146.316 281.697,148.348 L281.697,159.206 L278.213,159.206 z" fill="#838383"/>
    <path d="M306.993,152.703 Q307.148,154.445 307.864,155.374 Q309.18,157.058 312.432,157.058 Q314.367,157.058 315.838,156.216 Q317.309,155.374 317.309,153.613 Q317.309,152.277 316.128,151.581 Q315.374,151.155 313.148,150.594 L310.38,149.897 Q307.728,149.239 306.47,148.426 Q304.225,147.013 304.225,144.516 Q304.225,141.574 306.345,139.755 Q308.464,137.935 312.045,137.935 Q316.728,137.935 318.799,140.684 Q320.096,142.426 320.057,144.439 L316.767,144.439 Q316.67,143.258 315.935,142.29 Q314.735,140.916 311.774,140.916 Q309.799,140.916 308.783,141.671 Q307.767,142.426 307.767,143.665 Q307.767,145.019 309.103,145.832 Q309.877,146.316 311.387,146.684 L313.69,147.245 Q317.445,148.155 318.722,149.006 Q320.754,150.342 320.754,153.206 Q320.754,155.974 318.654,157.987 Q316.554,160 312.257,160 Q307.632,160 305.706,157.9 Q303.78,155.8 303.645,152.703 z" fill="#838383"/>
    <path d="M338.996,156.961 Q342.46,156.961 343.747,154.339 Q345.034,151.716 345.034,148.503 Q345.034,145.6 344.105,143.781 Q342.634,140.916 339.034,140.916 Q335.841,140.916 334.389,143.355 Q332.938,145.794 332.938,149.239 Q332.938,152.548 334.389,154.755 Q335.841,156.961 338.996,156.961 z M339.131,137.877 Q343.138,137.877 345.905,140.548 Q348.673,143.219 348.673,148.406 Q348.673,153.419 346.234,156.69 Q343.796,159.961 338.667,159.961 Q334.389,159.961 331.873,157.068 Q329.357,154.174 329.357,149.297 Q329.357,144.071 332.009,140.974 Q334.66,137.877 339.131,137.877 z" fill="#838383"/>
    <path d="M357.276,138.477 L360.586,138.477 L360.586,142.058 Q360.992,141.013 362.579,139.513 Q364.166,138.013 366.237,138.013 Q366.334,138.013 366.566,138.032 Q366.799,138.052 367.36,138.11 L367.36,141.787 Q367.05,141.729 366.789,141.71 Q366.528,141.69 366.218,141.69 Q363.586,141.69 362.173,143.384 Q360.76,145.077 360.76,147.284 L360.76,159.206 L357.276,159.206 z" fill="#838383"/>
    <path d="M378.769,132.69 L382.292,132.69 L382.292,138.477 L385.601,138.477 L385.601,141.323 L382.292,141.323 L382.292,154.852 Q382.292,155.935 383.027,156.303 Q383.434,156.516 384.382,156.516 Q384.634,156.516 384.924,156.506 Q385.214,156.497 385.601,156.458 L385.601,159.206 Q385.001,159.381 384.353,159.458 Q383.705,159.535 382.95,159.535 Q380.511,159.535 379.64,158.287 Q378.769,157.039 378.769,155.045 L378.769,141.323 L375.963,141.323 L375.963,138.477 L378.769,138.477 z" fill="#838383"/>
    <path d="M394.204,138.574 L397.746,138.574 L397.746,159.206 L394.204,159.206 z M394.204,130.774 L397.746,130.774 L397.746,134.723 L394.204,134.723 z" fill="#838383"/>
    <path d="M409.91,138.477 L409.91,152.239 Q409.91,153.826 410.413,154.832 Q411.342,156.69 413.878,156.69 Q417.517,156.69 418.833,153.439 Q419.549,151.697 419.549,148.658 L419.549,138.477 L423.033,138.477 L423.033,159.206 L419.742,159.206 L419.781,156.148 Q419.104,157.329 418.097,158.142 Q416.104,159.768 413.258,159.768 Q408.826,159.768 407.22,156.806 Q406.349,155.219 406.349,152.568 L406.349,138.477 z" fill="#838383"/>
    <path d="M431.635,138.477 L435.081,138.477 L435.081,141.419 Q436.319,139.89 437.326,139.194 Q439.048,138.013 441.235,138.013 Q443.713,138.013 445.223,139.232 Q446.074,139.929 446.771,141.284 Q447.932,139.619 449.5,138.816 Q451.068,138.013 453.023,138.013 Q457.203,138.013 458.713,141.032 Q459.526,142.658 459.526,145.406 L459.526,159.206 L455.906,159.206 L455.906,144.806 Q455.906,142.735 454.871,141.961 Q453.835,141.187 452.345,141.187 Q450.294,141.187 448.813,142.561 Q447.332,143.935 447.332,147.148 L447.332,159.206 L443.79,159.206 L443.79,145.677 Q443.79,143.568 443.287,142.6 Q442.494,141.148 440.326,141.148 Q438.352,141.148 436.735,142.677 Q435.119,144.206 435.119,148.213 L435.119,159.206 L431.635,159.206 z" fill="#838383"/>
  </g>
</svg>
